<?xml version="1.0" encoding="UTF-8" standalone="no"?>
<!DOCTYPE svg PUBLIC "-//W3C//DTD SVG 1.1//EN"
 "http://www.w3.org/Graphics/SVG/1.1/DTD/svg11.dtd">
<!-- Generated by graphviz version 7.0.1 (20221109.1506)
 -->
<!-- Title: Guix package Pages: 1 -->
<svg width="1694pt" height="476pt"
 viewBox="0.00 0.00 1693.50 476.00" xmlns="http://www.w3.org/2000/svg" xmlns:xlink="http://www.w3.org/1999/xlink">
<g id="graph0" class="graph" transform="scale(1 1) rotate(0) translate(4 472)">
<title>Guix package</title>
<polygon fill="white" stroke="none" points="-4,4 -4,-472 1689.5,-472 1689.5,4 -4,4"/>
<!-- 140499959534096 -->
<g id="node1" class="node">
<title>140499959534096</title>
<polygon fill="none" stroke="black" points="1245,-468 1163,-468 1163,-432 1245,-432 1245,-468"/>
<text text-anchor="middle" x="1204" y="-446.3" font-family="sans" font-size="14.00">poke@3.3</text>
</g>
<!-- 140499958042800 -->
<g id="node2" class="node">
<title>140499958042800</title>
<polygon fill="none" stroke="black" points="98,-396 0,-396 0,-360 98,-360 98,-396"/>
<text text-anchor="middle" x="49" y="-374.3" font-family="sans" font-size="14.00">bison@3.8.2</text>
</g>
<!-- 140499959534096&#45;&gt;140499958042800 -->
<g id="edge1" class="edge">
<title>140499959534096&#45;&gt;140499958042800</title>
<path fill="none" stroke="blue" d="M1162.55,-446.49C988.46,-435.94 315.89,-395.17 109.54,-382.67"/>
<polygon fill="blue" stroke="blue" points="110.05,-379.19 99.86,-382.08 109.63,-386.18 110.05,-379.19"/>
</g>
<!-- 140499954231360 -->
<g id="node3" class="node">
<title>140499954231360</title>
<polygon fill="none" stroke="black" points="1195,-396 1079,-396 1079,-360 1195,-360 1195,-396"/>
<text text-anchor="middle" x="1137" y="-374.3" font-family="sans" font-size="14.00">dejagnu@1.6.3</text>
</g>
<!-- 140499959534096&#45;&gt;140499954231360 -->
<g id="edge2" class="edge">
<title>140499959534096&#45;&gt;140499954231360</title>
<path fill="none" stroke="blue" d="M1187.44,-431.7C1179.57,-423.47 1170.01,-413.48 1161.33,-404.42"/>
<polygon fill="blue" stroke="blue" points="1163.86,-402 1154.42,-397.2 1158.8,-406.84 1163.86,-402"/>
</g>
<!-- 140499958042976 -->
<g id="node4" class="node">
<title>140499958042976</title>
<polygon fill="none" stroke="black" points="249.5,-324 164.5,-324 164.5,-288 249.5,-288 249.5,-324"/>
<text text-anchor="middle" x="207" y="-302.3" font-family="sans" font-size="14.00">flex@2.6.4</text>
</g>
<!-- 140499959534096&#45;&gt;140499958042976 -->
<g id="edge3" class="edge">
<title>140499959534096&#45;&gt;140499958042976</title>
<path fill="none" stroke="blue" d="M1162.88,-447.71C1025.34,-443.15 582.25,-426.42 443,-396 374.93,-381.13 300.31,-350.37 253.58,-329.21"/>
<polygon fill="blue" stroke="blue" points="255.11,-326.06 244.56,-325.08 252.2,-332.42 255.11,-326.06"/>
</g>
<!-- 140499959029760 -->
<g id="node5" class="node">
<title>140499959029760</title>
<polygon fill="none" stroke="black" points="554.5,-396 451.5,-396 451.5,-360 554.5,-360 554.5,-396"/>
<text text-anchor="middle" x="503" y="-374.3" font-family="sans" font-size="14.00">libtool@2.4.7</text>
</g>
<!-- 140499959534096&#45;&gt;140499959029760 -->
<g id="edge4" class="edge">
<title>140499959534096&#45;&gt;140499959029760</title>
<path fill="none" stroke="blue" d="M1162.51,-444.86C1044.64,-433.09 707.27,-399.4 566.2,-385.31"/>
<polygon fill="blue" stroke="blue" points="566.58,-381.83 556.29,-384.32 565.89,-388.8 566.58,-381.83"/>
</g>
<!-- 140500263643024 -->
<g id="node6" class="node">
<title>140500263643024</title>
<polygon fill="none" stroke="black" points="1406.5,-36 1267.5,-36 1267.5,0 1406.5,0 1406.5,-36"/>
<text text-anchor="middle" x="1337" y="-14.3" font-family="sans" font-size="14.00">pkg&#45;config@0.29.2</text>
</g>
<!-- 140499959534096&#45;&gt;140500263643024 -->
<g id="edge5" class="edge">
<title>140499959534096&#45;&gt;140500263643024</title>
<path fill="none" stroke="blue" d="M1245.44,-449.08C1332.4,-446.86 1526,-428.28 1526,-307 1526,-307 1526,-307 1526,-161 1526,-120.55 1534.26,-101.88 1507,-72 1484.17,-46.97 1449.74,-33.66 1417.82,-26.62"/>
<polygon fill="blue" stroke="blue" points="1418.63,-23.21 1408.14,-24.68 1417.26,-30.07 1418.63,-23.21"/>
</g>
<!-- 140499956559472 -->
<g id="node7" class="node">
<title>140499956559472</title>
<polygon fill="none" stroke="black" points="1308,-108 1216,-108 1216,-72 1308,-72 1308,-108"/>
<text text-anchor="middle" x="1262" y="-86.3" font-family="sans" font-size="14.00">libgc@8.2.2</text>
</g>
<!-- 140499959534096&#45;&gt;140499956559472 -->
<g id="edge6" class="edge">
<title>140499959534096&#45;&gt;140499956559472</title>
<path fill="none" stroke="blue" d="M1214.57,-431.79C1229.51,-405.77 1255,-354.41 1255,-307 1255,-307 1255,-307 1255,-233 1255,-193.69 1257.71,-148.34 1259.76,-119.67"/>
<polygon fill="blue" stroke="blue" points="1263.23,-120.22 1260.47,-109.98 1256.24,-119.7 1263.23,-120.22"/>
</g>
<!-- 140500171175824 -->
<g id="node8" class="node">
<title>140500171175824</title>
<polygon fill="none" stroke="black" points="1428,-252 1312,-252 1312,-216 1428,-216 1428,-252"/>
<text text-anchor="middle" x="1370" y="-230.3" font-family="sans" font-size="14.00">readline@8.1.2</text>
</g>
<!-- 140499959534096&#45;&gt;140500171175824 -->
<g id="edge7" class="edge">
<title>140499959534096&#45;&gt;140500171175824</title>
<path fill="none" stroke="blue" d="M1229.12,-431.58C1241.93,-421.97 1257.24,-409.31 1269,-396 1306.45,-353.6 1339.04,-295.78 1356.48,-262.21"/>
<polygon fill="blue" stroke="blue" points="1359.47,-264.06 1360.91,-253.56 1353.24,-260.87 1359.47,-264.06"/>
</g>
<!-- 140499958439360 -->
<g id="node9" class="node">
<title>140499958439360</title>
<polygon fill="none" stroke="black" points="1685.5,-396 1554.5,-396 1554.5,-360 1685.5,-360 1685.5,-396"/>
<text text-anchor="middle" x="1620" y="-374.3" font-family="sans" font-size="14.00">libtextstyle@0.21</text>
</g>
<!-- 140499959534096&#45;&gt;140499958439360 -->
<g id="edge8" class="edge">
<title>140499959534096&#45;&gt;140499958439360</title>
<path fill="none" stroke="blue" d="M1245.24,-443.21C1308.73,-434.14 1434.17,-415.58 1540,-396 1541.01,-395.81 1542.02,-395.62 1543.04,-395.43"/>
<polygon fill="blue" stroke="blue" points="1543.5,-398.91 1552.65,-393.57 1542.17,-392.04 1543.5,-398.91"/>
</g>
<!-- 140499958042800&#45;&gt;140499958042976 -->
<g id="edge11" class="edge">
<title>140499958042800&#45;&gt;140499958042976</title>
<path fill="none" stroke="red" d="M88.46,-359.52C109.37,-350.25 135.26,-338.78 157.51,-328.93"/>
<polygon fill="red" stroke="red" points="158.66,-332.25 166.38,-324.99 155.82,-325.85 158.66,-332.25"/>
</g>
<!-- 140499958564576 -->
<g id="node10" class="node">
<title>140499958564576</title>
<polygon fill="none" stroke="black" points="705,-36 609,-36 609,0 705,0 705,-36"/>
<text text-anchor="middle" x="657" y="-14.3" font-family="sans" font-size="14.00">perl@5.36.0</text>
</g>
<!-- 140499958042800&#45;&gt;140499958564576 -->
<g id="edge9" class="edge">
<title>140499958042800&#45;&gt;140499958564576</title>
<path fill="none" stroke="red" d="M39.26,-359.68C25.49,-333.53 2,-282 2,-235 2,-235 2,-235 2,-161 2,-100.16 50.01,-95.8 106,-72 193.29,-34.9 473.53,-23.5 597.29,-20.23"/>
<polygon fill="red" stroke="red" points="597.35,-23.73 607.26,-19.98 597.17,-16.73 597.35,-23.73"/>
</g>
<!-- 140500263643904 -->
<g id="node11" class="node">
<title>140500263643904</title>
<polygon fill="none" stroke="black" points="206.5,-108 115.5,-108 115.5,-72 206.5,-72 206.5,-108"/>
<text text-anchor="middle" x="161" y="-86.3" font-family="sans" font-size="14.00">m4@1.4.19</text>
</g>
<!-- 140499958042800&#45;&gt;140500263643904 -->
<g id="edge10" class="edge">
<title>140499958042800&#45;&gt;140500263643904</title>
<path fill="none" stroke="red" d="M42.35,-359.6C33.95,-318.56 29.14,-213.91 73,-144 80.83,-131.51 92.81,-121.29 105.46,-113.27"/>
<polygon fill="red" stroke="red" points="107.04,-116.4 113.91,-108.33 103.51,-110.36 107.04,-116.4"/>
</g>
<!-- 140499958042800&#45;&gt;140500263643904 -->
<g id="edge12" class="edge">
<title>140499958042800&#45;&gt;140500263643904</title>
<path fill="none" stroke="red" d="M51.51,-359.6C51.95,-318.56 47.14,-213.91 91,-144 98.47,-132.09 109.72,-122.23 121.06,-114.39"/>
<polygon fill="red" stroke="red" points="122.76,-117.46 129.27,-109.09 118.97,-111.58 122.76,-117.46"/>
</g>
<!-- 140499958302080 -->
<g id="node21" class="node">
<title>140499958302080</title>
<polygon fill="none" stroke="black" points="619.5,-108 460.5,-108 460.5,-72 619.5,-72 619.5,-108"/>
<text text-anchor="middle" x="540" y="-86.3" font-family="sans" font-size="14.00">bash&#45;minimal@5.1.16</text>
</g>
<!-- 140499954231360&#45;&gt;140499958302080 -->
<g id="edge31" class="edge">
<title>140499954231360&#45;&gt;140499958302080</title>
<path fill="none" stroke="darkseagreen" d="M1078.52,-367.4C995.6,-352.04 840.94,-316.85 724,-252 658.13,-215.47 595.16,-152.22 562.73,-116.85"/>
<polygon fill="darkseagreen" stroke="darkseagreen" points="565.48,-114.67 556.17,-109.61 560.29,-119.37 565.48,-114.67"/>
</g>
<!-- 140499954232944 -->
<g id="node22" class="node">
<title>140499954232944</title>
<polygon fill="none" stroke="black" points="1193.5,-324 1080.5,-324 1080.5,-288 1193.5,-288 1193.5,-324"/>
<text text-anchor="middle" x="1137" y="-302.3" font-family="sans" font-size="14.00">expect@5.45.4</text>
</g>
<!-- 140499954231360&#45;&gt;140499954232944 -->
<g id="edge32" class="edge">
<title>140499954231360&#45;&gt;140499954232944</title>
<path fill="none" stroke="darkseagreen" d="M1137,-359.7C1137,-352.41 1137,-343.73 1137,-335.54"/>
<polygon fill="darkseagreen" stroke="darkseagreen" points="1140.5,-335.62 1137,-325.62 1133.5,-335.62 1140.5,-335.62"/>
</g>
<!-- 140499958042976&#45;&gt;140500263643904 -->
<g id="edge14" class="edge">
<title>140499958042976&#45;&gt;140500263643904</title>
<path fill="none" stroke="darkviolet" d="M199.44,-287.85C188.04,-251.14 169.15,-164.66 162.37,-119.53"/>
<polygon fill="darkviolet" stroke="darkviolet" points="165.85,-119.16 161.02,-109.73 158.91,-120.11 165.85,-119.16"/>
</g>
<!-- 140499958042976&#45;&gt;140500263643904 -->
<g id="edge16" class="edge">
<title>140499958042976&#45;&gt;140500263643904</title>
<path fill="none" stroke="darkviolet" d="M207.19,-287.85C202.8,-251.07 184.44,-164.29 171.82,-119.24"/>
<polygon fill="darkviolet" stroke="darkviolet" points="175.19,-118.3 169.02,-109.68 168.47,-120.27 175.19,-118.3"/>
</g>
<!-- 140499958043504 -->
<g id="node12" class="node">
<title>140499958043504</title>
<polygon fill="none" stroke="black" points="869.5,-252 732.5,-252 732.5,-216 869.5,-216 869.5,-252"/>
<text text-anchor="middle" x="801" y="-230.3" font-family="sans" font-size="14.00">help2man@1.49.2</text>
</g>
<!-- 140499958042976&#45;&gt;140499958043504 -->
<g id="edge13" class="edge">
<title>140499958042976&#45;&gt;140499958043504</title>
<path fill="none" stroke="darkviolet" d="M249.72,-299.97C348.36,-288.34 593.28,-259.48 720.86,-244.44"/>
<polygon fill="darkviolet" stroke="darkviolet" points="721.06,-247.95 730.58,-243.3 720.24,-240.99 721.06,-247.95"/>
</g>
<!-- 140499959567040 -->
<g id="node13" class="node">
<title>140499959567040</title>
<polygon fill="none" stroke="black" points="296,-180 198,-180 198,-144 296,-144 296,-180"/>
<text text-anchor="middle" x="247" y="-158.3" font-family="sans" font-size="14.00">bison@3.8.2</text>
</g>
<!-- 140499958042976&#45;&gt;140499959567040 -->
<g id="edge15" class="edge">
<title>140499958042976&#45;&gt;140499959567040</title>
<path fill="none" stroke="darkviolet" d="M211.9,-287.59C218.69,-263.5 231.01,-219.75 239.1,-191.03"/>
<polygon fill="darkviolet" stroke="darkviolet" points="242.43,-192.14 241.77,-181.57 235.69,-190.24 242.43,-192.14"/>
</g>
<!-- 140499959029760&#45;&gt;140499958564576 -->
<g id="edge35" class="edge">
<title>140499959029760&#45;&gt;140499958564576</title>
<path fill="none" stroke="darkviolet" d="M554.97,-375.99C664,-370.64 914.36,-340.61 1009,-180 1022.55,-157.01 1000.88,-77.67 995,-72 956.27,-34.65 803.07,-23.62 716.82,-20.37"/>
<polygon fill="darkviolet" stroke="darkviolet" points="717,-16.87 706.88,-20.02 716.76,-23.87 717,-16.87"/>
</g>
<!-- 140499959029760&#45;&gt;140500263643904 -->
<g id="edge34" class="edge">
<title>140499959029760&#45;&gt;140500263643904</title>
<path fill="none" stroke="darkviolet" d="M451.29,-377.07C361.79,-376.1 184.33,-368.61 146,-324 96.21,-266.06 123.12,-166.85 144.29,-118.76"/>
<polygon fill="darkviolet" stroke="darkviolet" points="147.39,-120.41 148.45,-109.87 141.05,-117.44 147.39,-120.41"/>
</g>
<!-- 140499959029760&#45;&gt;140500263643904 -->
<g id="edge40" class="edge">
<title>140499959029760&#45;&gt;140500263643904</title>
<path fill="none" stroke="darkviolet" d="M451.3,-376.92C365.73,-375.44 200.79,-366.82 164,-324 114.42,-266.3 140.9,-167.69 154.9,-119.37"/>
<polygon fill="darkviolet" stroke="darkviolet" points="158.2,-120.53 157.63,-109.95 151.48,-118.58 158.2,-120.53"/>
</g>
<!-- 140499959029760&#45;&gt;140499958043504 -->
<g id="edge37" class="edge">
<title>140499959029760&#45;&gt;140499958043504</title>
<path fill="none" stroke="darkviolet" d="M554.9,-360.52C582.95,-350.99 617.91,-338.12 648,-324 689.55,-304.51 734.69,-277.47 765.09,-258.33"/>
<polygon fill="darkviolet" stroke="darkviolet" points="766.57,-261.53 773.14,-253.22 762.82,-255.62 766.57,-261.53"/>
</g>
<!-- 140499959070320 -->
<g id="node24" class="node">
<title>140499959070320</title>
<polygon fill="none" stroke="black" points="485,-324 387,-324 387,-288 485,-288 485,-324"/>
<text text-anchor="middle" x="436" y="-302.3" font-family="sans" font-size="14.00">libltdl@2.4.7</text>
</g>
<!-- 140499959029760&#45;&gt;140499959070320 -->
<g id="edge36" class="edge">
<title>140499959029760&#45;&gt;140499959070320</title>
<path fill="none" stroke="darkviolet" d="M486.44,-359.7C478.57,-351.47 469.01,-341.48 460.33,-332.42"/>
<polygon fill="darkviolet" stroke="darkviolet" points="462.86,-330 453.42,-325.2 457.8,-334.84 462.86,-330"/>
</g>
<!-- 140499959029936 -->
<g id="node25" class="node">
<title>140499959029936</title>
<polygon fill="none" stroke="black" points="639,-324 503,-324 503,-288 639,-288 639,-324"/>
<text text-anchor="middle" x="571" y="-302.3" font-family="sans" font-size="14.00">automake@1.16.5</text>
</g>
<!-- 140499959029760&#45;&gt;140499959029936 -->
<g id="edge38" class="edge">
<title>140499959029760&#45;&gt;140499959029936</title>
<path fill="none" stroke="darkviolet" d="M519.81,-359.7C527.88,-351.39 537.7,-341.28 546.58,-332.14"/>
<polygon fill="darkviolet" stroke="darkviolet" points="548.87,-334.8 553.33,-325.19 543.85,-329.92 548.87,-334.8"/>
</g>
<!-- 140499959030464 -->
<g id="node26" class="node">
<title>140499959030464</title>
<polygon fill="none" stroke="black" points="544,-252 368,-252 368,-216 544,-216 544,-252"/>
<text text-anchor="middle" x="456" y="-230.3" font-family="sans" font-size="14.00">autoconf&#45;wrapper@2.69</text>
</g>
<!-- 140499959029760&#45;&gt;140499959030464 -->
<g id="edge39" class="edge">
<title>140499959029760&#45;&gt;140499959030464</title>
<path fill="none" stroke="darkviolet" d="M451.08,-368.87C424.45,-361.78 394.27,-348.57 378,-324 369.17,-310.66 370.51,-302.14 378,-288 384.34,-276.02 394.75,-266.24 405.92,-258.5"/>
<polygon fill="darkviolet" stroke="darkviolet" points="407.57,-261.6 414.13,-253.28 403.81,-255.69 407.57,-261.6"/>
</g>
<!-- 140499956559472&#45;&gt;140500263643024 -->
<g id="edge56" class="edge">
<title>140499956559472&#45;&gt;140500263643024</title>
<path fill="none" stroke="darkgoldenrod" d="M1280.54,-71.7C1289.46,-63.37 1300.33,-53.22 1310.14,-44.07"/>
<polygon fill="darkgoldenrod" stroke="darkgoldenrod" points="1312.39,-46.76 1317.31,-37.38 1307.61,-41.64 1312.39,-46.76"/>
</g>
<!-- 140499957911728 -->
<g id="node18" class="node">
<title>140499957911728</title>
<polygon fill="none" stroke="black" points="1498,-108 1326,-108 1326,-72 1498,-72 1498,-108"/>
<text text-anchor="middle" x="1412" y="-86.3" font-family="sans" font-size="14.00">ncurses@6.2.20210619</text>
</g>
<!-- 140500171175824&#45;&gt;140499957911728 -->
<g id="edge62" class="edge">
<title>140500171175824&#45;&gt;140499957911728</title>
<path fill="none" stroke="darkgoldenrod" d="M1375.15,-215.59C1382.27,-191.5 1395.21,-147.75 1403.71,-119.03"/>
<polygon fill="darkgoldenrod" stroke="darkgoldenrod" points="1407.03,-120.14 1406.51,-109.56 1400.32,-118.16 1407.03,-120.14"/>
</g>
<!-- 140499958043504&#45;&gt;140499958564576 -->
<g id="edge17" class="edge">
<title>140499958043504&#45;&gt;140499958564576</title>
<path fill="none" stroke="darkgoldenrod" d="M769.89,-215.53C757.21,-205.9 743.33,-193.25 733,-180 715.45,-157.49 680.36,-86.62 664.37,-46.82"/>
<polygon fill="darkgoldenrod" stroke="darkgoldenrod" points="667.71,-45.74 660.86,-37.66 661.17,-48.25 667.71,-45.74"/>
</g>
<!-- 140499958043504&#45;&gt;140499958564576 -->
<g id="edge19" class="edge">
<title>140499958043504&#45;&gt;140499958564576</title>
<path fill="none" stroke="darkgoldenrod" d="M785.94,-215.53C775.21,-205.9 761.33,-193.25 751,-180 733.34,-157.35 697.91,-85.7 675.62,-46.05"/>
<polygon fill="darkgoldenrod" stroke="darkgoldenrod" points="678.76,-44.49 670.74,-37.56 672.69,-47.97 678.76,-44.49"/>
</g>
<!-- 140499958439712 -->
<g id="node14" class="node">
<title>140499958439712</title>
<polygon fill="none" stroke="black" points="1219.5,-180 1056.5,-180 1056.5,-144 1219.5,-144 1219.5,-180"/>
<text text-anchor="middle" x="1138" y="-158.3" font-family="sans" font-size="14.00">gettext&#45;minimal@0.21</text>
</g>
<!-- 140499958043504&#45;&gt;140499958439712 -->
<g id="edge18" class="edge">
<title>140499958043504&#45;&gt;140499958439712</title>
<path fill="none" stroke="darkgoldenrod" d="M869.6,-218.75C920.11,-208.26 989.35,-193.88 1044.85,-182.35"/>
<polygon fill="darkgoldenrod" stroke="darkgoldenrod" points="1045.55,-185.78 1054.63,-180.32 1044.13,-178.92 1045.55,-185.78"/>
</g>
<!-- 140499958789328 -->
<g id="node15" class="node">
<title>140499958789328</title>
<polygon fill="none" stroke="black" points="1000,-180 864,-180 864,-144 1000,-144 1000,-180"/>
<text text-anchor="middle" x="932" y="-158.3" font-family="sans" font-size="14.00">perl&#45;gettext@1.07</text>
</g>
<!-- 140499958043504&#45;&gt;140499958789328 -->
<g id="edge20" class="edge">
<title>140499958043504&#45;&gt;140499958789328</title>
<path fill="none" stroke="darkgoldenrod" d="M833.72,-215.52C850.65,-206.47 871.52,-195.32 889.66,-185.62"/>
<polygon fill="darkgoldenrod" stroke="darkgoldenrod" points="891.19,-188.77 898.36,-180.97 887.89,-182.6 891.19,-188.77"/>
</g>
<!-- 140499959567040&#45;&gt;140499958564576 -->
<g id="edge28" class="edge">
<title>140499959567040&#45;&gt;140499958564576</title>
<path fill="none" stroke="darkgoldenrod" d="M271.19,-143.57C300.35,-123.39 351.49,-90.54 400,-72 465.22,-47.07 544.45,-33 597.55,-25.71"/>
<polygon fill="darkgoldenrod" stroke="darkgoldenrod" points="597.85,-29.2 607.3,-24.42 596.93,-22.26 597.85,-29.2"/>
</g>
<!-- 140499959567040&#45;&gt;140500263643904 -->
<g id="edge29" class="edge">
<title>140499959567040&#45;&gt;140500263643904</title>
<path fill="none" stroke="darkgoldenrod" d="M219.83,-143.7C208.62,-135.28 195.82,-125.02 184.97,-115.79"/>
<polygon fill="darkgoldenrod" stroke="darkgoldenrod" points="187.38,-113.25 177.53,-109.34 182.79,-118.54 187.38,-113.25"/>
</g>
<!-- 140499959567040&#45;&gt;140500263643904 -->
<g id="edge30" class="edge">
<title>140499959567040&#45;&gt;140500263643904</title>
<path fill="none" stroke="darkgoldenrod" d="M231.66,-143.7C222,-135.11 209.27,-124.61 197.24,-115.24"/>
<polygon fill="darkgoldenrod" stroke="darkgoldenrod" points="199.5,-112.57 189.43,-109.27 195.25,-118.12 199.5,-112.57"/>
</g>
<!-- 140500169970720 -->
<g id="node16" class="node">
<title>140500169970720</title>
<polygon fill="none" stroke="black" points="986,-108 860,-108 860,-72 986,-72 986,-108"/>
<text text-anchor="middle" x="923" y="-86.3" font-family="sans" font-size="14.00">libunistring@1.0</text>
</g>
<!-- 140499958439712&#45;&gt;140500169970720 -->
<g id="edge21" class="edge">
<title>140499958439712&#45;&gt;140500169970720</title>
<path fill="none" stroke="dimgrey" d="M1084.3,-143.52C1054.82,-133.92 1018.06,-121.95 987.08,-111.86"/>
<polygon fill="dimgrey" stroke="dimgrey" points="988.42,-108.62 977.83,-108.85 986.25,-115.27 988.42,-108.62"/>
</g>
<!-- 140499970298208 -->
<g id="node17" class="node">
<title>140499970298208</title>
<polygon fill="none" stroke="black" points="1160,-108 1042,-108 1042,-72 1160,-72 1160,-108"/>
<text text-anchor="middle" x="1101" y="-86.3" font-family="sans" font-size="14.00">libxml2@2.9.14</text>
</g>
<!-- 140499958439712&#45;&gt;140499970298208 -->
<g id="edge22" class="edge">
<title>140499958439712&#45;&gt;140499970298208</title>
<path fill="none" stroke="dimgrey" d="M1128.85,-143.7C1124.78,-135.98 1119.88,-126.71 1115.33,-118.11"/>
<polygon fill="dimgrey" stroke="dimgrey" points="1118.52,-116.65 1110.75,-109.44 1112.33,-119.92 1118.52,-116.65"/>
</g>
<!-- 140499958439712&#45;&gt;140499957911728 -->
<g id="edge23" class="edge">
<title>140499958439712&#45;&gt;140499957911728</title>
<path fill="none" stroke="dimgrey" d="M1206.43,-143.52C1244.83,-133.71 1292.91,-121.43 1332.91,-111.21"/>
<polygon fill="dimgrey" stroke="dimgrey" points="1333.67,-114.62 1342.5,-108.76 1331.94,-107.84 1333.67,-114.62"/>
</g>
<!-- 140499970298208&#45;&gt;140499958564576 -->
<g id="edge24" class="edge">
<title>140499970298208&#45;&gt;140499958564576</title>
<path fill="none" stroke="red" d="M1041.73,-74.74C1037.09,-73.77 1032.48,-72.84 1028,-72 918.74,-51.51 790.06,-34.76 716.56,-25.89"/>
<polygon fill="red" stroke="red" points="717.09,-22.43 706.75,-24.71 716.26,-29.38 717.09,-22.43"/>
</g>
<!-- 140499958235840 -->
<g id="node19" class="node">
<title>140499958235840</title>
<polygon fill="none" stroke="black" points="1190,-36 1114,-36 1114,0 1190,0 1190,-36"/>
<text text-anchor="middle" x="1152" y="-14.3" font-family="sans" font-size="14.00">xz@5.2.8</text>
</g>
<!-- 140499970298208&#45;&gt;140499958235840 -->
<g id="edge25" class="edge">
<title>140499970298208&#45;&gt;140499958235840</title>
<path fill="none" stroke="red" d="M1113.61,-71.7C1119.41,-63.73 1126.43,-54.1 1132.86,-45.26"/>
<polygon fill="red" stroke="red" points="1135.59,-47.47 1138.65,-37.33 1129.93,-43.35 1135.59,-47.47"/>
</g>
<!-- 140499958237248 -->
<g id="node20" class="node">
<title>140499958237248</title>
<polygon fill="none" stroke="black" points="1096,-36 1004,-36 1004,0 1096,0 1096,-36"/>
<text text-anchor="middle" x="1050" y="-14.3" font-family="sans" font-size="14.00">zlib@1.2.13</text>
</g>
<!-- 140499970298208&#45;&gt;140499958237248 -->
<g id="edge26" class="edge">
<title>140499970298208&#45;&gt;140499958237248</title>
<path fill="none" stroke="red" d="M1088.39,-71.7C1082.59,-63.73 1075.57,-54.1 1069.14,-45.26"/>
<polygon fill="red" stroke="red" points="1072.07,-43.35 1063.35,-37.33 1066.41,-47.47 1072.07,-43.35"/>
</g>
<!-- 140499957911728&#45;&gt;140500263643024 -->
<g id="edge27" class="edge">
<title>140499957911728&#45;&gt;140500263643024</title>
<path fill="none" stroke="dimgrey" d="M1393.46,-71.7C1384.54,-63.37 1373.67,-53.22 1363.86,-44.07"/>
<polygon fill="dimgrey" stroke="dimgrey" points="1366.39,-41.64 1356.69,-37.38 1361.61,-46.76 1366.39,-41.64"/>
</g>
<!-- 140499954159616 -->
<g id="node23" class="node">
<title>140499954159616</title>
<polygon fill="none" stroke="black" points="1180,-252 1094,-252 1094,-216 1180,-216 1180,-252"/>
<text text-anchor="middle" x="1137" y="-230.3" font-family="sans" font-size="14.00">tcl@8.6.12</text>
</g>
<!-- 140499954232944&#45;&gt;140499954159616 -->
<g id="edge33" class="edge">
<title>140499954232944&#45;&gt;140499954159616</title>
<path fill="none" stroke="magenta" d="M1137,-287.7C1137,-280.41 1137,-271.73 1137,-263.54"/>
<polygon fill="magenta" stroke="magenta" points="1140.5,-263.62 1137,-253.62 1133.5,-263.62 1140.5,-263.62"/>
</g>
<!-- 140499959029936&#45;&gt;140499958564576 -->
<g id="edge42" class="edge">
<title>140499959029936&#45;&gt;140499958564576</title>
<path fill="none" stroke="darkgoldenrod" d="M572.8,-287.54C583.1,-239.56 623.19,-105.39 644.41,-46.88"/>
<polygon fill="darkgoldenrod" stroke="darkgoldenrod" points="647.64,-48.24 647.86,-37.65 641.08,-45.79 647.64,-48.24"/>
</g>
<!-- 140499959029936&#45;&gt;140499958564576 -->
<g id="edge45" class="edge">
<title>140499959029936&#45;&gt;140499958564576</title>
<path fill="none" stroke="darkgoldenrod" d="M579.7,-287.54C598.22,-239.66 638.69,-105.95 652.74,-47.24"/>
<polygon fill="darkgoldenrod" stroke="darkgoldenrod" points="656.1,-48.24 654.91,-37.71 649.28,-46.68 656.1,-48.24"/>
</g>
<!-- 140499959029936&#45;&gt;140499958302080 -->
<g id="edge44" class="edge">
<title>140499959029936&#45;&gt;140499958302080</title>
<path fill="none" stroke="darkgoldenrod" d="M568.52,-287.85C563.2,-251.14 550.67,-164.66 544.13,-119.53"/>
<polygon fill="darkgoldenrod" stroke="darkgoldenrod" points="547.61,-119.13 542.71,-109.73 540.68,-120.13 547.61,-119.13"/>
</g>
<!-- 140499959029936&#45;&gt;140499959030464 -->
<g id="edge41" class="edge">
<title>140499959029936&#45;&gt;140499959030464</title>
<path fill="none" stroke="darkgoldenrod" d="M536.34,-287.52C520.93,-278.68 502.96,-267.84 487.88,-258.3"/>
<polygon fill="darkgoldenrod" stroke="darkgoldenrod" points="490.03,-255.52 479.72,-253.08 486.25,-261.42 490.03,-255.52"/>
</g>
<!-- 140499959029936&#45;&gt;140499959030464 -->
<g id="edge43" class="edge">
<title>140499959029936&#45;&gt;140499959030464</title>
<path fill="none" stroke="darkgoldenrod" d="M548.21,-287.52C534.46,-278.6 516.6,-267.63 500.22,-258.03"/>
<polygon fill="darkgoldenrod" stroke="darkgoldenrod" points="501.98,-255.01 491.58,-253.02 498.47,-261.06 501.98,-255.01"/>
</g>
<!-- 140499959030464&#45;&gt;140499958564576 -->
<g id="edge46" class="edge">
<title>140499959030464&#45;&gt;140499958564576</title>
<path fill="none" stroke="darkviolet" d="M464.72,-215.83C469.37,-205.69 474.62,-192.44 477,-180 480,-164.28 481.78,-159.27 477,-144 471.18,-125.41 457.82,-126.59 452,-108 447.22,-92.73 442.2,-84.65 452,-72 469.76,-49.07 543.49,-34.27 597.46,-26.29"/>
<polygon fill="darkviolet" stroke="darkviolet" points="597.75,-29.79 607.15,-24.91 596.76,-22.86 597.75,-29.79"/>
</g>
<!-- 140499959030464&#45;&gt;140500263643904 -->
<g id="edge47" class="edge">
<title>140499959030464&#45;&gt;140500263643904</title>
<path fill="none" stroke="darkviolet" d="M410.49,-215.61C389.13,-206.48 363.86,-194.22 343,-180 323.78,-166.89 324.77,-156.27 305,-144 278.13,-127.32 245.2,-114.71 217.62,-105.98"/>
<polygon fill="darkviolet" stroke="darkviolet" points="218.98,-102.74 208.4,-103.16 216.93,-109.43 218.98,-102.74"/>
</g>
<!-- 140499959030464&#45;&gt;140499958302080 -->
<g id="edge50" class="edge">
<title>140499959030464&#45;&gt;140499958302080</title>
<path fill="none" stroke="darkviolet" d="M478.17,-215.56C489.03,-206.04 501.56,-193.47 510,-180 521.65,-161.41 529.34,-137.78 534.02,-119.54"/>
<polygon fill="darkviolet" stroke="darkviolet" points="537.4,-120.45 536.31,-109.92 530.59,-118.83 537.4,-120.45"/>
</g>
<!-- 140499954577184 -->
<g id="node27" class="node">
<title>140499954577184</title>
<polygon fill="none" stroke="black" points="845.5,-180 750.5,-180 750.5,-144 845.5,-144 845.5,-180"/>
<text text-anchor="middle" x="798" y="-158.3" font-family="sans" font-size="14.00">guile@3.0.9</text>
</g>
<!-- 140499959030464&#45;&gt;140499954577184 -->
<g id="edge48" class="edge">
<title>140499959030464&#45;&gt;140499954577184</title>
<path fill="none" stroke="darkviolet" d="M541.42,-215.52C602.93,-202.93 684.34,-186.26 738.81,-175.12"/>
<polygon fill="darkviolet" stroke="darkviolet" points="739.43,-178.56 748.52,-173.13 738.02,-171.7 739.43,-178.56"/>
</g>
<!-- 140499959031344 -->
<g id="node28" class="node">
<title>140499959031344</title>
<polygon fill="none" stroke="black" points="468,-180 352,-180 352,-144 468,-144 468,-180"/>
<text text-anchor="middle" x="410" y="-158.3" font-family="sans" font-size="14.00">autoconf@2.69</text>
</g>
<!-- 140499959030464&#45;&gt;140499959031344 -->
<g id="edge49" class="edge">
<title>140499959030464&#45;&gt;140499959031344</title>
<path fill="none" stroke="darkviolet" d="M444.63,-215.7C439.45,-207.81 433.2,-198.3 427.44,-189.55"/>
<polygon fill="darkviolet" stroke="darkviolet" points="430.49,-187.8 422.07,-181.37 424.64,-191.65 430.49,-187.8"/>
</g>
<!-- 140499954577184&#45;&gt;140500263643024 -->
<g id="edge51" class="edge">
<title>140499954577184&#45;&gt;140500263643024</title>
<path fill="none" stroke="dimgrey" d="M845.74,-146.1C848.86,-145.33 851.97,-144.62 855,-144 992.61,-115.82 1041.69,-167.36 1169,-108 1190.09,-98.17 1187.45,-84.61 1207,-72 1226.63,-59.34 1249.77,-48.74 1271.05,-40.42"/>
<polygon fill="dimgrey" stroke="dimgrey" points="1272.13,-43.75 1280.24,-36.94 1269.65,-37.21 1272.13,-43.75"/>
</g>
<!-- 140499954577184&#45;&gt;140499956559472 -->
<g id="edge55" class="edge">
<title>140499954577184&#45;&gt;140499956559472</title>
<path fill="none" stroke="dimgrey" d="M845.73,-146.06C848.85,-145.3 851.96,-144.61 855,-144 1007.06,-113.71 1049.73,-137.24 1202,-108 1202.84,-107.84 1203.68,-107.67 1204.53,-107.5"/>
<polygon fill="dimgrey" stroke="dimgrey" points="1205.22,-110.93 1214.2,-105.31 1203.67,-104.1 1205.22,-110.93"/>
</g>
<!-- 140499954577184&#45;&gt;140500169970720 -->
<g id="edge54" class="edge">
<title>140499954577184&#45;&gt;140500169970720</title>
<path fill="none" stroke="dimgrey" d="M829.22,-143.52C845.3,-134.51 865.1,-123.42 882.36,-113.76"/>
<polygon fill="dimgrey" stroke="dimgrey" points="883.84,-116.94 890.86,-109 880.42,-110.83 883.84,-116.94"/>
</g>
<!-- 140499954577184&#45;&gt;140499958302080 -->
<g id="edge53" class="edge">
<title>140499954577184&#45;&gt;140499958302080</title>
<path fill="none" stroke="dimgrey" d="M750.08,-148C712.19,-137.72 658.62,-123.18 615.06,-111.36"/>
<polygon fill="dimgrey" stroke="dimgrey" points="616.24,-108.06 605.67,-108.82 614.41,-114.81 616.24,-108.06"/>
</g>
<!-- 140499956314992 -->
<g id="node29" class="node">
<title>140499956314992</title>
<polygon fill="none" stroke="black" points="841.5,-108 750.5,-108 750.5,-72 841.5,-72 841.5,-108"/>
<text text-anchor="middle" x="796" y="-86.3" font-family="sans" font-size="14.00">libffi@3.4.4</text>
</g>
<!-- 140499954577184&#45;&gt;140499956314992 -->
<g id="edge52" class="edge">
<title>140499954577184&#45;&gt;140499956314992</title>
<path fill="none" stroke="dimgrey" d="M797.51,-143.7C797.3,-136.41 797.05,-127.73 796.82,-119.54"/>
<polygon fill="dimgrey" stroke="dimgrey" points="800.32,-119.51 796.53,-109.62 793.32,-119.71 800.32,-119.51"/>
</g>
<!-- 140499959031344&#45;&gt;140499958564576 -->
<g id="edge57" class="edge">
<title>140499959031344&#45;&gt;140499958564576</title>
<path fill="none" stroke="#00cdcd" d="M399.63,-143.62C393.72,-123.79 391.79,-91.58 409,-72 433.02,-44.67 531.82,-30.19 597.32,-23.6"/>
<polygon fill="#00cdcd" stroke="#00cdcd" points="597.61,-27.08 607.23,-22.64 596.94,-20.12 597.61,-27.08"/>
</g>
<!-- 140499959031344&#45;&gt;140499958564576 -->
<g id="edge61" class="edge">
<title>140499959031344&#45;&gt;140499958564576</title>
<path fill="none" stroke="#00cdcd" d="M412.54,-143.62C411.72,-123.79 409.79,-91.58 427,-72 449.41,-46.51 536.87,-32.2 597.32,-25.04"/>
<polygon fill="#00cdcd" stroke="#00cdcd" points="597.6,-28.53 607.14,-23.91 596.81,-21.57 597.6,-28.53"/>
</g>
<!-- 140499959031344&#45;&gt;140500263643904 -->
<g id="edge58" class="edge">
<title>140499959031344&#45;&gt;140500263643904</title>
<path fill="none" stroke="#00cdcd" d="M351.56,-146.15C311.17,-135.19 257.8,-120.21 217.78,-108.63"/>
<polygon fill="#00cdcd" stroke="#00cdcd" points="218.9,-105.31 208.32,-105.89 216.94,-112.04 218.9,-105.31"/>
</g>
<!-- 140499959031344&#45;&gt;140500263643904 -->
<g id="edge60" class="edge">
<title>140499959031344&#45;&gt;140500263643904</title>
<path fill="none" stroke="#00cdcd" d="M353.74,-143.52C313.2,-131.78 258.75,-116.51 218.03,-105.46"/>
<polygon fill="#00cdcd" stroke="#00cdcd" points="218.96,-102.09 208.39,-102.86 217.13,-108.85 218.96,-102.09"/>
</g>
<!-- 140499959031344&#45;&gt;140499958302080 -->
<g id="edge59" class="edge">
<title>140499959031344&#45;&gt;140499958302080</title>
<path fill="none" stroke="#00cdcd" d="M442.47,-143.52C459.27,-134.47 479.98,-123.32 497.98,-113.62"/>
<polygon fill="#00cdcd" stroke="#00cdcd" points="499.47,-116.8 506.61,-108.98 496.15,-110.64 499.47,-116.8"/>
</g>
</g>
</svg>
