<?xml version="1.0" standalone="no"?>
<!DOCTYPE svg PUBLIC "-//W3C//DTD SVG 20010904//EN"
 "http://www.w3.org/TR/2001/REC-SVG-20010904/DTD/svg10.dtd">
<svg version="1.0" xmlns="http://www.w3.org/2000/svg"
 width="310.000000pt" height="310.000000pt" viewBox="0 0 310.000000 310.000000"
 preserveAspectRatio="xMidYMid meet">
<metadata>
Created by potrace 1.14, written by Peter Selinger 2001-2017
</metadata>
<g transform="translate(0.000000,310.000000) scale(0.100000,-0.100000)"
fill="#000000" stroke="none">
<path d="M746 3088 c5 -8 1 -9 -12 -4 -16 6 -16 4 4 -14 25 -23 31 -40 7 -20
-13 11 -14 10 -9 -4 5 -13 2 -15 -12 -9 -16 6 -17 5 -4 -9 8 -9 20 -13 25 -10
14 9 38 12 30 4 -4 -4 -12 -7 -18 -7 -7 0 -12 -5 -12 -12 0 -6 -4 -15 -8 -20
-5 -4 -7 -1 -5 7 2 8 -3 14 -10 12 -8 -1 -11 2 -7 9 6 8 2 8 -12 0 -11 -6 -23
-7 -27 -4 -3 3 -6 1 -6 -6 0 -8 7 -11 18 -6 13 5 14 4 5 -6 -10 -10 -9 -15 5
-26 9 -8 11 -12 4 -8 -7 4 -19 2 -27 -5 -10 -8 -15 -8 -21 1 -4 7 -3 9 4 5 16
-10 22 7 7 21 -10 9 -14 7 -18 -9 -5 -19 -8 -20 -23 -7 -16 12 -17 12 -9 -1
15 -23 15 -42 1 -37 -7 3 -19 1 -27 -4 -12 -7 -12 -9 1 -10 8 -1 18 -1 22 -1
3 1 8 -4 11 -11 3 -9 -5 -12 -31 -9 -24 3 -33 1 -28 -7 4 -6 11 -9 15 -7 4 3
8 -1 8 -9 0 -8 -4 -15 -9 -15 -4 0 -8 4 -8 9 0 5 -7 11 -15 15 -13 4 -14 2 -5
-14 6 -11 7 -20 3 -20 -4 0 -1 -5 7 -11 13 -9 12 -10 -2 -5 -11 3 -19 -2 -23
-15 -4 -10 -10 -17 -15 -14 -4 3 -13 -2 -20 -10 -11 -14 -15 -14 -34 2 -20 17
-20 17 -6 -1 14 -18 13 -19 -2 -13 -13 4 -15 2 -11 -10 5 -12 3 -14 -8 -8 -10
6 -9 3 2 -11 9 -10 15 -26 14 -35 -2 -9 3 -16 10 -16 13 0 14 14 3 33 -4 6 -1
11 7 11 8 0 14 -3 13 -6 -3 -27 4 -40 22 -38 11 1 20 5 20 10 0 6 8 -1 19 -14
18 -23 22 -63 8 -74 -4 -3 -5 -2 -2 1 2 4 -2 19 -10 34 -8 15 -12 30 -8 33 3
4 -5 4 -17 2 -12 -2 -25 -7 -29 -11 -3 -3 3 -4 13 -2 10 1 21 -3 24 -11 2 -8
0 -11 -5 -8 -5 3 -10 0 -10 -8 0 -18 13 -20 21 -2 2 6 4 -2 3 -18 0 -17 3 -37
7 -45 4 -8 0 -6 -9 5 -12 16 -18 17 -24 7 -5 -8 -12 -14 -17 -15 -5 -1 -8 -6
-6 -10 1 -5 -2 -6 -8 -2 -5 3 -10 1 -10 -5 0 -6 -4 -8 -10 -5 -5 3 -10 1 -10
-6 0 -7 -3 -9 -7 -6 -15 16 -31 -15 -23 -44 5 -18 5 -27 -1 -24 -5 4 -9 13 -9
21 0 8 -3 14 -7 15 -5 0 -17 2 -28 3 -17 2 -20 -4 -23 -43 -1 -28 2 -48 10
-53 10 -6 10 -8 1 -8 -7 0 -13 -5 -13 -12 0 -6 3 -8 7 -5 3 4 14 0 23 -8 23
-21 53 -9 40 15 -6 10 -10 22 -10 27 1 4 8 -5 16 -20 8 -15 19 -25 24 -22 5 3
7 -7 4 -22 -3 -15 -11 -31 -17 -35 -9 -6 -9 -8 1 -8 6 0 12 -8 12 -17 0 -15
-2 -15 -9 -4 -6 10 -8 2 -7 -22 2 -21 6 -40 11 -45 4 -4 5 -1 1 6 -4 6 -3 12
2 12 5 0 9 8 9 18 0 35 3 42 21 42 16 -1 16 -1 0 -10 -9 -6 -15 -18 -13 -28 4
-26 -14 -54 -31 -48 -8 3 -12 1 -9 -4 3 -5 19 -8 35 -6 17 2 27 -1 24 -6 -3
-5 -12 -7 -20 -4 -9 4 -14 -2 -14 -15 0 -11 -4 -18 -8 -15 -5 3 -8 -7 -7 -22
1 -15 -3 -30 -9 -34 -6 -4 -1 -6 11 -5 16 1 19 5 12 13 -7 8 -6 14 1 19 6 3 8
11 5 16 -4 5 -1 9 4 9 14 0 14 -17 1 -25 -6 -4 -7 -12 -3 -18 4 -6 8 -20 8
-29 1 -14 -1 -15 -12 -6 -11 9 -12 7 -6 -8 6 -17 5 -18 -13 -4 -17 14 -18 14
-6 -2 8 -9 11 -22 8 -27 -4 -5 -2 -12 4 -16 5 -3 10 -11 10 -17 0 -6 -7 -5
-17 3 -15 13 -15 12 -2 -8 8 -14 16 -18 20 -12 4 8 9 8 13 1 3 -6 2 -13 -4
-17 -15 -9 -12 -27 2 -20 7 4 0 -3 -15 -15 -20 -16 -26 -28 -22 -44 5 -18 4
-17 -9 4 -9 14 -15 20 -16 13 0 -7 -7 -10 -17 -7 -15 5 -15 4 -3 -4 8 -6 17
-9 20 -7 4 2 7 -2 7 -10 0 -10 -5 -11 -19 -4 -10 5 -18 6 -18 2 0 -4 -4 -1
-10 7 -5 9 -9 -97 -10 -288 0 -238 2 -302 12 -302 10 0 10 -2 0 -9 -11 -7 -11
-9 1 -14 12 -4 14 0 11 19 -2 13 0 24 6 24 5 0 9 -3 9 -7 -5 -31 28 -54 43
-31 6 11 8 10 8 0 0 -7 4 -10 10 -7 5 3 10 1 10 -5 0 -7 -6 -10 -13 -7 -8 3
-20 1 -28 -5 -11 -8 -11 -9 3 -4 10 3 20 1 23 -5 4 -5 11 -6 17 -3 6 4 8 2 5
-4 -4 -5 -17 -8 -30 -6 -15 3 -13 1 7 -7 21 -9 25 -14 15 -20 -11 -8 -10 -12
5 -24 11 -8 14 -15 7 -15 -7 0 -9 -5 -5 -12 4 -7 3 -8 -4 -4 -7 4 -12 2 -12
-5 0 -7 -3 -9 -6 -6 -4 4 -1 14 7 24 12 14 12 16 0 8 -9 -5 -12 -4 -7 3 3 6 3
13 -2 16 -13 8 -9 -49 5 -65 6 -8 11 -18 10 -23 -1 -5 8 -10 21 -11 23 -2 22
-1 -5 21 -15 13 -25 23 -21 24 14 0 58 -43 58 -57 0 -7 4 -13 10 -13 5 0 7 8
4 18 -5 14 -4 14 4 2 6 -8 9 -17 6 -21 -5 -9 25 -21 36 -14 5 3 11 1 14 -4 3
-5 -7 -8 -22 -7 -26 2 -28 -1 -27 -31 1 -39 21 -66 21 -29 0 14 -3 23 -6 21
-4 -2 -7 2 -7 10 0 10 4 12 12 5 7 -5 16 -6 20 -2 5 4 4 0 -1 -8 -5 -8 -9 -24
-9 -35 0 -24 -25 -27 -43 -5 -11 13 -11 12 -2 -7 5 -12 15 -25 20 -28 6 -4 8
-10 5 -15 -3 -5 -1 -11 4 -14 11 -7 9 13 -4 34 -7 13 -6 13 7 2 20 -16 16 -48
-5 -44 -15 2 -18 -20 -4 -34 15 -15 6 -26 -10 -13 -15 12 -16 12 -8 -1 5 -8
10 -21 11 -28 3 -20 11 -25 19 -13 3 6 1 11 -6 11 -8 0 -8 4 1 15 9 11 9 19 2
28 -8 10 -6 13 11 14 12 0 17 -1 11 -3 -14 -6 -6 -86 11 -101 4 -4 5 -2 1 5
-4 6 -3 12 2 12 17 0 22 -13 10 -27 -8 -11 -7 -12 6 -7 19 7 19 9 6 35 -10 17
-9 18 15 7 19 -8 22 -14 13 -20 -9 -5 -10 -10 -2 -15 13 -10 27 -46 15 -38 -8
5 -6 -43 4 -72 2 -7 -2 -10 -13 -6 -9 3 -6 -3 8 -12 14 -10 27 -20 29 -21 1
-1 0 -8 -4 -15 -6 -8 -10 -7 -17 5 -5 9 -13 16 -18 16 -6 0 -2 -9 7 -19 9 -11
20 -18 25 -15 5 3 14 2 21 -3 17 -13 36 -10 47 7 13 20 13 4 0 -20 -7 -12 -17
-17 -28 -14 -14 5 -14 4 -3 -4 10 -7 21 -7 34 0 10 5 21 7 25 4 3 -3 -1 -6 -8
-6 -9 0 -7 -5 6 -15 13 -11 14 -14 4 -13 -8 2 -18 7 -21 12 -4 4 -9 4 -12 -1
-4 -6 5 -16 18 -23 14 -7 25 -17 25 -22 0 -5 -4 -7 -9 -3 -5 3 -12 1 -16 -4
-3 -5 3 -15 12 -21 17 -11 17 -11 1 -6 -10 3 -18 1 -18 -5 0 -6 -4 -7 -10 -4
-5 3 -7 0 -4 -9 3 -8 13 -17 21 -20 13 -5 14 -4 3 9 -7 8 -8 15 -2 15 5 0 13
-7 16 -16 3 -9 11 -12 18 -8 8 4 10 3 5 -2 -9 -9 -13 -10 -44 -13 -15 -1 -16
-3 -3 -11 8 -5 17 -5 20 -1 3 5 13 7 23 5 9 -1 17 3 17 9 0 7 5 4 11 -6 9 -15
13 -16 27 -5 15 12 16 11 3 -4 -7 -10 -17 -15 -22 -12 -5 3 -6 -2 -3 -10 3 -9
10 -13 15 -10 5 3 9 0 9 -6 0 -6 5 -8 12 -4 7 5 8 3 4 -5 -5 -7 -14 -10 -22
-7 -8 3 -14 1 -14 -4 0 -14 34 -12 49 2 8 7 6 1 -3 -14 -13 -20 -14 -28 -5
-34 8 -5 9 -3 4 6 -6 10 -4 12 8 7 18 -7 33 8 17 16 -6 3 -5 4 2 2 7 -1 12 -8
10 -15 -2 -7 3 -10 12 -7 10 4 14 0 11 -14 -3 -13 2 -19 13 -19 16 -1 16 -1 0
-11 -10 -5 -18 -15 -18 -22 0 -8 3 -8 8 -2 4 6 16 12 27 13 19 4 19 4 -1 -15
-11 -10 -18 -17 -15 -16 2 2 10 -2 18 -8 7 -6 13 -8 13 -5 0 4 9 2 19 -4 13
-7 22 -7 26 0 3 5 11 10 17 10 7 0 6 -6 -2 -18 -7 -9 2 -1 20 18 l32 35 -16
-32 c-20 -40 -21 -53 -2 -27 9 11 27 19 45 20 23 0 28 -3 20 -12 -7 -9 -4 -17
13 -28 12 -9 18 -16 12 -16 -6 0 -21 11 -34 25 -21 22 -48 26 -34 4 3 -5 9 -7
14 -4 4 3 13 -2 20 -10 7 -8 9 -15 4 -15 -5 0 7 -14 25 -31 18 -16 35 -28 38
-26 2 3 -8 14 -23 26 -15 11 -23 21 -19 21 5 0 17 -8 28 -18 15 -12 21 -14 24
-4 3 6 9 12 14 12 6 0 8 -4 4 -9 -3 -5 -1 -12 4 -15 5 -4 12 -2 16 3 8 14 42
9 42 -6 0 -9 -4 -10 -14 -2 -9 8 -17 8 -26 0 -10 -8 -17 -7 -25 1 -7 7 -12 8
-12 2 0 -5 9 -15 21 -22 12 -8 18 -9 14 -3 -3 6 -1 11 4 11 18 0 26 -5 23 -12
-6 -21 16 -5 27 18 8 17 17 24 27 20 8 -3 23 -2 33 3 14 8 17 5 19 -15 1 -15
-2 -23 -8 -19 -6 4 -8 11 -5 16 4 5 1 9 -4 9 -15 0 -14 -15 2 -29 17 -13 27
-5 27 22 0 13 5 17 15 13 8 -3 15 0 15 7 0 8 3 8 9 -2 6 -9 10 -10 14 -2 3 7
4 7 2 -1 -1 -7 -8 -12 -14 -10 -6 1 -11 -4 -11 -10 0 -9 -4 -8 -10 2 -5 8 -10
10 -10 4 0 -6 8 -18 17 -25 9 -8 14 -9 10 -3 -4 7 0 15 9 18 22 8 24 8 20 -6
-1 -7 -1 -10 1 -5 3 4 10 4 16 0 9 -5 9 -3 0 8 -8 10 -9 19 -1 29 8 13 9 12 5
-2 -3 -9 1 -19 9 -22 15 -6 59 8 66 21 3 4 3 2 2 -4 -3 -12 1 -14 32 -17 6 -1
20 -8 30 -16 17 -14 18 -13 7 1 -7 9 -9 20 -5 24 4 5 1 5 -5 1 -9 -5 -11 -2
-7 8 3 9 10 16 16 16 5 0 7 -4 4 -8 -7 -12 24 -53 35 -47 5 4 9 14 8 23 0 14
-2 14 -8 -2 -6 -16 -9 -17 -16 -6 -5 9 -4 15 3 18 7 2 9 8 6 14 -3 5 3 4 14
-3 12 -7 18 -17 16 -21 -3 -5 -2 -8 3 -7 20 3 34 -2 28 -11 -4 -6 1 -7 11 -3
11 4 13 8 6 11 -7 2 -9 9 -5 15 4 7 0 8 -11 4 -9 -4 -15 -3 -12 2 9 14 79 6
84 -10 3 -11 1 -11 -7 1 -9 12 -10 11 -8 -7 2 -12 7 -26 12 -30 4 -5 5 -3 1 4
-8 14 21 32 47 28 10 -2 22 6 28 18 8 19 8 20 -3 7 -13 -15 -62 -24 -53 -10 3
5 2 10 -2 13 -5 2 -2 2 5 0 7 -1 22 2 33 8 15 8 17 14 10 23 -8 9 -6 18 5 32
8 10 13 14 10 7 -7 -14 3 -43 14 -43 5 0 6 12 4 27 -5 27 -5 27 15 8 12 -10
24 -15 28 -12 3 4 1 7 -6 7 -7 0 -9 5 -5 12 4 7 3 8 -4 4 -7 -4 -12 -2 -12 3
0 6 6 11 14 11 8 0 17 6 20 13 3 6 3 1 0 -13 -5 -20 -4 -22 6 -13 7 6 19 9 28
6 11 -5 13 -3 7 7 -5 9 -4 11 4 6 6 -4 9 -11 6 -16 -3 -5 0 -12 6 -16 8 -4 9
-3 5 5 -6 8 2 10 26 6 32 -6 32 -5 13 10 -16 13 -16 16 -3 11 12 -3 15 -1 11
9 -3 8 -10 12 -16 8 -6 -4 -7 -1 -2 6 4 7 18 11 31 8 13 -2 21 -1 19 4 -3 4 0
9 7 11 7 3 5 7 -6 11 -9 4 -15 3 -11 -2 3 -5 -3 -8 -12 -7 -9 2 -19 9 -21 17
-3 11 -1 11 7 -1 6 -9 11 -10 11 -3 0 7 13 10 34 9 26 -2 33 0 29 11 -4 10 -9
11 -18 3 -10 -8 -15 -8 -21 1 -4 8 -3 9 5 5 6 -4 14 0 17 9 6 14 8 14 20 -2
10 -14 12 -14 11 -3 -2 8 -6 20 -10 27 -4 6 -2 15 4 19 8 4 9 3 5 -5 -4 -6 0
-14 8 -17 9 -3 13 -11 9 -18 -4 -6 1 -5 10 2 11 10 14 23 11 42 -6 29 9 49 22
29 4 -7 3 -9 -3 -6 -5 3 -10 0 -10 -8 0 -11 4 -12 14 -4 7 6 11 15 8 19 -3 5
-1 11 5 15 6 4 8 11 4 16 -3 5 0 8 8 7 8 -2 12 5 11 17 -1 11 0 14 3 7 3 -6
11 -9 17 -5 8 5 8 2 0 -9 -7 -8 -9 -18 -5 -22 4 -4 1 -6 -7 -4 -7 2 -15 -3
-16 -10 -2 -7 -1 -8 2 -2 2 5 9 7 14 4 6 -3 5 -12 -3 -22 -12 -15 -11 -16 4
-3 10 7 16 17 13 21 -3 5 -1 11 5 15 6 4 8 11 5 16 -4 5 -1 9 6 9 7 0 4 6 -6
14 -15 10 -20 27 -21 65 0 35 3 48 10 42 16 -12 45 -10 43 3 -1 6 4 10 11 8 6
-1 11 1 10 5 -2 5 1 9 6 10 15 2 27 30 20 47 -3 9 -11 13 -17 9 -6 -4 -7 -1
-3 6 10 16 48 -16 39 -33 -3 -6 -2 -7 2 -3 12 10 15 38 4 31 -13 -8 -11 10 3
24 7 7 8 12 4 12 -5 0 -2 8 5 18 12 15 12 16 -1 5 -10 -8 -21 -9 -30 -3 -13 8
-12 10 2 10 9 0 20 5 24 12 4 7 3 8 -4 4 -11 -6 -16 6 -13 27 0 4 -4 7 -10 7
-6 0 -1 8 12 19 21 17 26 17 49 4 17 -10 20 -11 9 -1 -14 11 -14 15 -3 26 13
12 18 8 15 -11 -1 -5 3 -6 9 -2 7 4 7 13 -1 26 -10 19 -12 19 -28 5 -10 -9
-22 -16 -27 -16 -12 0 38 34 53 36 7 1 11 -1 8 -6 -3 -4 1 -10 8 -13 9 -3 11
6 9 34 -3 28 0 39 9 39 8 1 3 7 -10 14 -19 11 -21 14 -7 19 9 4 24 4 33 1 17
-5 17 -5 0 6 -9 6 -23 8 -30 5 -6 -4 -3 1 7 9 11 9 15 16 10 16 -6 0 -11 7
-11 15 0 10 6 14 16 10 11 -3 9 0 -4 10 -20 16 -28 72 -11 82 5 3 6 1 2 -5 -4
-7 -2 -12 4 -12 6 0 8 -5 3 -12 -11 -19 -13 -39 -2 -32 5 3 7 9 4 14 -3 5 -1
11 5 15 6 4 7 11 4 17 -5 7 -1 9 9 5 14 -5 15 -2 7 21 l-10 27 20 -24 c22 -26
26 -21 9 12 l-10 22 19 -21 19 -22 13 22 c12 19 11 20 -2 8 -13 -10 -17 -10
-21 3 -4 8 -1 14 6 12 7 -1 13 10 15 26 2 15 6 25 10 23 4 -2 7 11 8 30 1 33
-11 49 -14 19 -1 -8 -3 -22 -4 -30 -1 -8 -5 -15 -10 -15 -11 0 -10 7 3 32 10
18 9 20 -7 14 -18 -6 -18 -6 -1 8 10 8 18 17 18 20 -2 19 0 26 10 26 8 0 8 -4
0 -13 -8 -10 -7 -14 4 -14 7 0 14 3 13 6 -2 24 4 33 21 28 16 -4 18 1 16 29
-1 26 1 32 11 23 7 -5 10 -22 8 -37 -3 -20 -2 -23 5 -12 5 8 8 17 5 21 -2 4 3
10 11 13 8 3 15 9 14 13 -3 20 2 34 11 28 6 -3 7 1 4 10 -4 11 -2 14 9 9 9 -3
22 4 32 18 l17 23 -7 -22 c-4 -14 -2 -23 4 -23 7 0 11 84 10 264 -1 216 -4
264 -14 259 -8 -2 -11 -12 -8 -20 4 -10 2 -14 -4 -10 -6 4 -14 1 -17 -5 -3 -7
-3 -3 0 10 3 13 1 22 -6 22 -6 0 -8 5 -4 12 4 7 3 8 -4 4 -14 -8 -30 22 -27
51 1 13 0 21 -3 18 -2 -2 -11 3 -20 11 -12 12 -12 18 -2 27 10 10 11 9 5 -3
-8 -13 -7 -13 10 0 17 13 18 13 13 -1 -4 -9 -1 -16 7 -16 11 0 12 5 2 21 -6
12 -10 24 -9 29 1 4 -3 7 -9 7 -6 0 -8 -7 -4 -17 5 -15 4 -16 -7 -5 -11 11 -9
16 7 29 20 15 20 15 -1 9 -14 -4 -21 -2 -21 8 0 8 6 12 13 9 6 -2 15 1 20 8 4
8 3 10 -4 5 -7 -4 -12 -2 -12 4 0 6 -5 8 -12 4 -7 -4 -8 -3 -4 5 4 6 2 20 -5
29 -8 9 -2 7 12 -6 19 -16 26 -19 26 -8 0 8 -4 13 -8 11 -4 -3 -10 7 -15 23
-11 38 -13 92 -4 92 4 0 6 -16 4 -35 -1 -19 2 -35 7 -35 6 0 7 5 4 10 -3 6 0
10 7 10 10 0 10 2 -1 9 -11 7 -11 9 0 14 12 5 12 6 0 6 -11 1 -11 4 0 18 8 9
9 14 3 10 -7 -4 -15 0 -18 9 -9 24 -7 28 8 15 10 -8 16 -9 21 -1 4 6 1 9 -6 8
-7 -2 -13 4 -14 12 -1 19 25 61 34 55 4 -2 8 2 8 10 0 10 -4 12 -12 5 -9 -7
-16 -6 -24 4 -8 10 -9 16 -1 21 6 4 10 3 9 -2 -3 -20 2 -25 16 -13 8 7 12 17
8 23 -3 6 -1 7 6 3 6 -4 9 -12 6 -17 -4 -5 -2 -9 4 -9 5 0 16 -2 23 -5 11 -4
15 6 17 45 1 31 -2 50 -9 50 -6 0 -9 4 -5 9 3 5 0 13 -6 17 -8 4 -9 3 -5 -4 4
-7 1 -12 -8 -12 -10 0 -13 -6 -9 -17 4 -11 3 -14 -5 -9 -15 9 -16 36 -2 36 6
0 10 5 10 10 0 6 -6 9 -12 8 -7 -2 -12 3 -10 11 3 12 0 12 -12 1 -18 -14 -22
0 -5 17 8 8 5 16 -11 31 l-21 19 26 -2 c15 -2 29 3 35 13 5 10 10 12 10 5 0
-7 9 -17 19 -22 18 -10 19 -6 19 55 0 63 -1 65 -19 48 -18 -17 -25 -10 -20 19
1 5 -3 6 -9 2 -5 -3 -11 -1 -11 4 -3 26 -4 30 -9 35 -3 3 -6 -8 -5 -24 0 -15
4 -28 9 -27 5 1 11 -5 13 -13 4 -12 3 -12 -5 -2 -5 8 -12 13 -16 13 -3 -1 -5
2 -3 5 1 3 -9 12 -23 21 -14 8 -17 12 -7 9 15 -5 16 -3 7 14 -6 11 -8 24 -6
29 3 5 -1 11 -9 14 -11 5 -12 1 -5 -19 9 -22 8 -24 -10 -14 -11 6 -17 18 -15
30 2 11 -1 19 -8 17 -7 -1 -11 4 -9 11 1 8 -2 11 -8 7 -6 -3 -8 -10 -6 -14 3
-4 0 -13 -6 -21 -8 -13 -9 -12 -5 2 6 19 -15 42 -28 30 -5 -4 -5 -1 -1 6 4 7
2 12 -6 12 -10 0 -9 3 2 10 12 8 12 10 -3 16 -9 3 -17 12 -17 20 0 16 -9 18
-30 4 -20 -13 -31 7 -19 37 6 16 5 22 -1 18 -9 -5 -14 6 -12 26 1 3 -5 6 -13
6 -12 0 -11 -4 1 -21 16 -24 18 -36 4 -36 -6 0 -9 3 -9 8 1 4 1 14 0 22 -1 11
-4 11 -13 2 -7 -7 -16 -12 -22 -12 -5 0 -1 6 9 14 18 13 17 15 -16 31 -31 16
-33 16 -20 1 12 -14 12 -16 -4 -10 -11 5 -16 4 -12 -3 3 -5 -1 -10 -9 -10 -10
0 -11 4 -4 11 5 5 10 16 10 24 0 7 -10 3 -24 -12 -13 -15 -27 -26 -32 -26 -5
1 0 9 12 18 19 16 19 19 6 32 -14 13 -15 12 -10 -2 4 -10 1 -19 -8 -22 -9 -3
-12 -1 -9 4 3 6 1 10 -4 10 -6 0 -11 5 -11 11 0 5 6 7 13 3 6 -4 2 4 -10 17
-21 23 -23 27 -23 49 0 6 -271 10 -756 10 -571 0 -753 -3 -748 -12z m21 -13
c0 -8 -4 -12 -9 -9 -5 3 -6 10 -3 15 9 13 12 11 12 -6z m1503 -40 c0 -2 -10
-2 -23 -1 -14 0 -23 7 -23 17 0 15 3 15 23 2 13 -9 23 -17 23 -18z m-13 -21
c-3 -3 -12 -4 -19 -1 -8 3 -5 6 6 6 11 1 17 -2 13 -5z m-1604 -78 c4 -10 1
-13 -8 -9 -8 3 -12 9 -9 14 7 12 11 11 17 -5z m-173 -180 c0 -2 -7 -7 -16 -10
-8 -3 -12 -2 -9 4 6 10 25 14 25 6z m45 -36 c-3 -5 -12 -10 -18 -10 -7 0 -6 4
3 10 19 12 23 12 15 0z m2120 -8 c-3 -3 -11 0 -18 7 -9 10 -8 11 6 5 10 -3 15
-9 12 -12z m90 -32 c-3 -5 -12 -10 -18 -10 -7 0 -6 4 3 10 19 12 23 12 15 0z
m-76 -126 c-5 -6 -8 -18 -6 -25 2 -8 2 -11 0 -6 -3 4 -8 5 -12 3 -4 -3 -8 1
-8 9 0 8 4 15 9 15 4 0 8 5 8 11 0 5 -4 8 -8 5 -5 -3 -9 1 -9 8 0 11 4 12 18
3 12 -8 15 -15 8 -23z m-2222 -21 c-4 -3 0 -14 8 -23 13 -14 13 -17 0 -17 -8
0 -12 4 -9 8 2 4 0 10 -6 14 -10 6 -5 25 7 25 4 0 3 -3 0 -7z m2246 -28 c-7
-21 -13 -19 -13 6 0 11 4 18 10 14 5 -3 7 -12 3 -20z m-2298 -5 c-3 -5 -12
-10 -18 -10 -7 0 -6 4 3 10 19 12 23 12 15 0z m23 -109 c3 -8 -1 -12 -9 -9 -7
2 -15 10 -17 17 -3 8 1 12 9 9 7 -2 15 -10 17 -17z m2236 -13 c-5 -8 -2 -9 10
-5 14 6 15 4 4 -16 -7 -12 -11 -26 -10 -30 1 -5 -2 -6 -8 -2 -6 3 -8 11 -5 16
4 5 0 9 -7 9 -9 0 -9 3 2 10 8 5 11 10 7 10 -9 0 1 20 9 20 3 0 2 -5 -2 -12z
m-2154 -238 c0 -5 -5 -10 -11 -10 -5 0 -7 5 -4 10 3 6 8 10 11 10 2 0 4 -4 4
-10z m-21 -91 c-7 -13 -5 -21 8 -28 10 -6 13 -11 7 -11 -6 0 -19 10 -30 22
-10 12 -13 18 -5 13 10 -6 13 -4 9 7 -4 8 0 15 7 15 10 0 11 -5 4 -18z m2181
-69 c6 -11 8 -20 6 -20 -3 0 -10 9 -16 20 -6 11 -8 20 -6 20 3 0 10 -9 16 -20z
m-2180 -42 c-14 -11 -24 -28 -22 -37 2 -12 -1 -11 -9 3 -8 13 -9 21 -2 23 6 2
19 10 29 18 29 22 32 17 4 -7z m2195 -5 c30 -33 31 -42 6 -40 -11 0 -17 5 -14
11 4 5 -2 7 -13 3 -18 -7 -18 -7 0 8 17 13 15 19 -5 17 -3 -1 -6 6 -6 14 0 19
2 18 32 -13z m-5 -553 c-6 -11 -8 -25 -5 -30 3 -6 4 -10 1 -10 -3 0 -10 10
-17 21 -6 12 -7 19 -1 15 5 -3 12 1 16 9 3 8 8 15 11 15 3 0 1 -9 -5 -20z
m-2240 -80 c0 -5 -2 -10 -4 -10 -3 0 -8 5 -11 10 -3 6 -1 10 4 10 6 0 11 -4
11 -10z m2024 -293 c7 -6 6 -7 -4 -4 -8 2 -16 12 -17 23 -2 13 -1 15 4 4 3 -8
11 -19 17 -23z m3 -32 c0 -8 -4 -15 -9 -15 -4 0 -8 7 -8 15 0 8 4 15 8 15 5 0
9 -7 9 -15z m-1772 -273 c-3 -3 -11 0 -18 7 -9 10 -8 11 6 5 10 -3 15 -9 12
-12z m1685 -27 c0 -2 -9 -3 -19 -2 -11 0 -18 5 -15 9 4 6 34 0 34 -7z m-65
-55 c-3 -5 -2 -10 4 -10 5 0 11 5 13 12 3 7 7 8 10 3 3 -6 -10 -23 -28 -38
-24 -21 -34 -24 -40 -15 -4 7 -4 10 1 6 4 -4 14 -1 21 7 17 17 18 29 2 19 -9
-5 -9 -2 1 9 15 18 26 23 16 7z m-1585 -20 c0 -5 -2 -10 -4 -10 -3 0 -8 5 -11
10 -3 6 -1 10 4 10 6 0 11 -4 11 -10z m1545 -8 c-3 -3 -11 0 -18 7 -9 10 -8
11 6 5 10 -3 15 -9 12 -12z m-71 -170 c3 -5 -1 -9 -9 -9 -8 0 -12 4 -9 9 3 4
7 8 9 8 2 0 6 -4 9 -8z m-37 -47 c0 -8 -4 -12 -9 -9 -5 3 -6 10 -3 15 9 13 12
11 12 -6z m13 -35 c0 -5 -2 -10 -4 -10 -3 0 -8 5 -11 10 -3 6 -1 10 4 10 6 0
11 -4 11 -10z m-1150 -120 c6 -11 8 -20 6 -20 -3 0 -10 9 -16 20 -6 11 -8 20
-6 20 3 0 10 -9 16 -20z m-30 0 c0 -5 -2 -10 -4 -10 -3 0 -8 5 -11 10 -3 6 -1
10 4 10 6 0 11 -4 11 -10z m1034 -6 c5 -14 4 -15 -9 -4 -17 14 -19 20 -6 20 5
0 12 -7 15 -16z m-839 -34 c3 -6 -1 -7 -9 -4 -18 7 -21 14 -7 14 6 0 13 -4 16
-10z m327 -72 c-7 -7 -12 -8 -12 -2 0 14 12 26 19 19 2 -3 -1 -11 -7 -17z m80
0 c-7 -7 -12 -8 -12 -2 0 14 12 26 19 19 2 -3 -1 -11 -7 -17z"/>
<path d="M2396 3006 c10 -8 21 -12 24 -10 5 6 -21 24 -34 24 -6 0 -1 -6 10
-14z"/>
<path d="M2464 2918 c-7 -11 18 -10 36 2 11 7 10 9 -8 7 -13 -1 -26 -5 -28 -9z"/>
<path d="M2520 2896 c0 -2 7 -7 16 -10 8 -3 12 -2 9 4 -6 10 -25 14 -25 6z"/>
<path d="M2551 2866 c-9 -10 -8 -16 4 -26 10 -9 15 -9 15 -1 0 6 -5 11 -11 11
-8 0 -8 5 1 15 7 8 10 15 7 15 -2 0 -10 -6 -16 -14z"/>
<path d="M519 2843 c-1 -1 -2 -8 -3 -15 0 -6 -9 -12 -19 -14 -22 -3 -36 -14
-18 -14 7 0 9 -5 5 -12 -4 -6 4 -3 18 8 35 26 51 51 32 51 -8 0 -15 -2 -15 -4z"/>
<path d="M546 2667 c3 -10 9 -15 12 -12 3 3 0 11 -7 18 -10 9 -11 8 -5 -6z"/>
<path d="M493 2608 c-13 -6 -23 -15 -23 -20 0 -5 -4 -7 -9 -3 -5 3 -12 1 -15
-4 -9 -15 16 -7 54 17 36 23 32 29 -7 10z"/>
<path d="M2695 2601 c-3 -6 -12 -8 -18 -4 -7 3 -3 -3 7 -15 22 -25 35 -30 15
-6 -12 15 -11 16 11 10 14 -4 21 -4 15 1 -5 5 -13 12 -16 16 -4 5 -10 3 -14
-2z"/>
<path d="M420 2360 c0 -5 7 -7 15 -4 8 4 15 8 15 10 0 2 -7 4 -15 4 -8 0 -15
-4 -15 -10z"/>
<path d="M2655 2180 c3 -5 8 -10 11 -10 2 0 4 5 4 10 0 6 -5 10 -11 10 -5 0
-7 -4 -4 -10z"/>
<path d="M416 1958 c3 -5 10 -6 15 -3 13 9 11 12 -6 12 -8 0 -12 -4 -9 -9z"/>
<path d="M2590 1280 c0 -5 5 -10 11 -10 5 0 7 5 4 10 -3 6 -8 10 -11 10 -2 0
-4 -4 -4 -10z"/>
<path d="M478 1083 c7 -3 16 -2 19 1 4 3 -2 6 -13 5 -11 0 -14 -3 -6 -6z"/>
<path d="M2465 860 c3 -5 8 -10 11 -10 2 0 4 5 4 10 0 6 -5 10 -11 10 -5 0 -7
-4 -4 -10z"/>
<path d="M2359 773 c-7 -10 -10 -15 -5 -11 5 4 18 3 30 -3 19 -9 19 -9 4 4
-10 8 -15 17 -11 20 3 4 4 7 1 7 -3 0 -12 -8 -19 -17z"/>
<path d="M2244 515 c2 -38 16 -59 24 -36 2 6 -1 11 -6 11 -12 0 -10 19 2 39 6
9 5 12 -2 7 -5 -3 -12 0 -15 6 -2 7 -4 -5 -3 -27z"/>
<path d="M735 509 c-10 -15 3 -25 16 -12 7 7 7 13 1 17 -6 3 -14 1 -17 -5z"/>
<path d="M805 392 c-10 -7 -18 -32 -10 -32 2 0 9 9 15 20 12 22 11 24 -5 12z"/>
<path d="M888 282 c-12 -15 -11 -16 5 -3 14 11 17 11 18 0 1 -8 0 -18 -1 -24
-1 -5 2 -6 6 -2 13 13 13 35 -1 41 -8 3 -19 -3 -27 -12z"/>
<path d="M1950 179 c0 -5 5 -7 10 -4 6 3 10 8 10 11 0 2 -4 4 -10 4 -5 0 -10
-5 -10 -11z"/>
<path d="M1140 106 c0 -2 8 -10 18 -17 15 -13 16 -12 3 4 -13 16 -21 21 -21
13z"/>
<path d="M1310 102 c0 -4 9 -13 20 -20 19 -12 20 -11 8 8 -13 20 -28 27 -28
12z"/>
<path d="M1535 89 c-4 -6 -4 -13 -1 -16 3 -4 6 -1 6 7 0 10 4 10 18 -1 15 -13
16 -12 3 4 -16 20 -18 20 -26 6z"/>
</g>
</svg>
